<?xml version="1.0" encoding="utf-8"?>
<!-- Generator: Adobe Illustrator 15.0.2, SVG Export Plug-In . SVG Version: 6.00 Build 0)  -->
<!DOCTYPE svg PUBLIC "-//W3C//DTD SVG 1.1//EN" "http://www.w3.org/Graphics/SVG/1.1/DTD/svg11.dtd">
<svg version="1.1" id="圖層_1" xmlns="http://www.w3.org/2000/svg" xmlns:xlink="http://www.w3.org/1999/xlink" x="0px" y="0px"
	 width="178px" height="46px" viewBox="0 0 178 46" enable-background="new 0 0 178 46" xml:space="preserve">
<path fill="#007BC5" d="M17.5,7.014c-7.112,0-12.879,5.002-12.879,11.176c0,0.178,0.006,0.359,0.016,0.541
	c0.003,0.024,0.005,0.051,0.005,0.076C5.183,28.032,17.5,39.954,17.5,39.954s12.318-11.922,12.859-21.147
	c0.002-0.025,0.002-0.052,0.004-0.076c0.01-0.182,0.016-0.363,0.016-0.541C30.379,12.016,24.615,7.014,17.5,7.014 M26.396,21.266
	c-0.578,0.735-1.646,0.871-2.386,0.295l-0.583-0.453l-0.74,5.849c-0.037,0.305-0.164,0.599-0.343,0.813
	c-0.177,0.213-0.399,0.336-0.61,0.336h-1.908c-0.773,0-0.779-0.723-0.777-0.822v-0.008v-0.004l0.117-2.766
	c0.011-0.388-0.233-0.707-0.547-0.707h-2.201c-0.313,0-0.551,0.319-0.535,0.707l0.175,2.766c0,0,0.055,0.834-0.773,0.834h-1.897
	c-0.211,0-0.437-0.123-0.619-0.336c-0.18-0.215-0.312-0.51-0.354-0.813l-0.836-5.853l-0.586,0.457v0.002
	c-0.31,0.242-0.681,0.357-1.042,0.357c-0.508,0-1.01-0.223-1.344-0.654c-0.576-0.74-0.444-1.809,0.297-2.387L16.457,13
	c0.615-0.479,1.467-0.479,2.088,0l7.554,5.879C26.838,19.457,26.97,20.525,26.396,21.266"/>
<path fill="#007BC5" d="M34.095,26.922l2.225-2.665c1.54,1.271,3.154,2.078,5.109,2.078c1.541,0,2.47-0.61,2.47-1.612v-0.05
	c0-0.953-0.587-1.442-3.448-2.177c-3.448-0.88-5.671-1.834-5.671-5.23v-0.049c0-3.105,2.493-5.158,5.989-5.158
	c2.494,0,4.621,0.782,6.357,2.174l-1.957,2.836c-1.515-1.049-3.007-1.685-4.449-1.685c-1.442,0-2.201,0.658-2.201,1.489v0.05
	c0,1.124,0.734,1.49,3.693,2.249c3.471,0.904,5.426,2.15,5.426,5.135v0.049c0,3.397-2.59,5.305-6.282,5.305
	C38.765,29.659,36.149,28.756,34.095,26.922"/>
<polygon fill="#007BC5" points="49.9,12.303 53.959,12.303 58.457,19.537 62.955,12.303 67.013,12.303 67.013,29.414 63.273,29.414 
	63.273,18.242 58.457,25.555 58.359,25.555 53.591,18.316 53.591,29.414 49.9,29.414 "/>
<path fill="#007BC5" d="M75.76,12.182h3.472l7.334,17.233h-3.938l-1.563-3.839h-7.239l-1.563,3.839h-3.838L75.76,12.182z
	 M79.72,22.252l-2.273-5.55l-2.274,5.55H79.72z"/>
<path fill="#007BC5" d="M87.979,12.303h7.823c2.175,0,3.863,0.611,4.988,1.736c0.953,0.953,1.465,2.297,1.465,3.911v0.049
	c0,2.762-1.489,4.499-3.666,5.304l4.181,6.113H98.37l-3.668-5.479h-0.048h-2.909v5.479h-3.766V12.303z M95.559,20.614
	c1.834,0,2.885-0.979,2.885-2.421v-0.049c0-1.612-1.125-2.443-2.959-2.443h-3.739v4.913H95.559z"/>
<polygon fill="#007BC5" points="108.497,15.773 103.288,15.773 103.288,12.302 117.469,12.302 117.469,15.773 112.262,15.773 
	112.262,29.415 108.497,29.415 "/>
<polygon fill="#161F27" points="119.227,12.303 131.398,12.303 131.398,13.477 120.498,13.477 120.498,20.198 130.299,20.198 
	130.299,21.371 120.498,21.371 120.498,28.24 131.521,28.24 131.521,29.414 119.227,29.414 "/>
<polygon fill="#161F27" points="138.331,23.061 133.417,16.947 134.909,16.947 139.113,22.229 143.318,16.947 144.762,16.947 
	139.848,23.035 144.956,29.415 143.466,29.415 139.064,23.866 134.663,29.415 133.223,29.415 "/>
<path fill="#161F27" d="M146.833,16.947h1.198v2.787c1.076-1.64,2.666-3.082,5.134-3.082c3.006,0,6.063,2.422,6.063,6.479v0.05
	c0,4.059-3.058,6.527-6.063,6.527c-2.494,0-4.106-1.419-5.134-2.982v6.602h-1.198V16.947z M157.934,23.23V23.18
	c0-3.274-2.273-5.378-4.892-5.378c-2.591,0-5.085,2.177-5.085,5.354v0.05c0,3.202,2.494,5.354,5.085,5.354
	C155.757,28.561,157.934,26.58,157.934,23.23"/>
<path fill="#161F27" d="M160.938,23.23V23.18c0-3.494,2.715-6.527,6.431-6.527c3.69,0,6.382,2.982,6.382,6.479v0.05
	c0,3.495-2.715,6.527-6.432,6.527C163.629,29.709,160.938,26.727,160.938,23.23 M172.454,23.23V23.18
	c0-3.007-2.249-5.402-5.136-5.402c-2.957,0-5.086,2.421-5.086,5.354v0.05c0,3.008,2.25,5.402,5.136,5.402
	C170.326,28.584,172.454,26.164,172.454,23.23"/>
</svg>
