<?xml version="1.0" encoding="utf-8"?>
<!-- Generator: Adobe Illustrator 18.1.0, SVG Export Plug-In . SVG Version: 6.00 Build 0)  -->
<svg version="1.2" baseProfile="tiny" id="圖層_1"
	 xmlns="http://www.w3.org/2000/svg" xmlns:xlink="http://www.w3.org/1999/xlink" x="0px" y="0px" width="620.1px" height="275.4px"
	 viewBox="0 0 620.1 275.4" xml:space="preserve">
<g>
	<path fill="#FFFFFF" d="M310.1,0c-31.6,0-57.2,22.2-57.2,49.6c0,0.8,0,1.6,0.1,2.4c0,0.1,0,0.2,0,0.3c2.4,41,57.1,93.9,57.1,93.9
		s54.7-52.9,57.1-93.9c0-0.1,0-0.2,0-0.3c0-0.8,0.1-1.6,0.1-2.4C367.2,22.2,341.6,0,310.1,0 M349.6,63.3c-2.6,3.3-7.3,3.9-10.6,1.3
		l-2.6-2l-3.3,26c-0.2,1.4-0.7,2.7-1.5,3.6c-0.8,0.9-1.8,1.5-2.7,1.5h-8.5c-3.4,0-3.5-3.2-3.4-3.6v0v0l0.5-12.3c0-1.7-1-3.1-2.4-3.1
		h-9.8c-1.4,0-2.4,1.4-2.4,3.1l0.8,12.3c0,0,0.2,3.7-3.4,3.7h-8.4c-0.9,0-1.9-0.5-2.7-1.5c-0.8-1-1.4-2.3-1.6-3.6l-3.7-26l-2.6,2v0
		c-1.4,1.1-3,1.6-4.6,1.6c-2.3,0-4.5-1-6-2.9c-2.6-3.3-2-8,1.3-10.6l33.5-26.1c2.7-2.1,6.5-2.1,9.3,0l33.5,26.1
		C351.5,55.3,352.1,60,349.6,63.3"/>
</g>
<path fill="#FFFFFF" d="M0,247l9.9-11.8c6.8,5.6,14,9.2,22.7,9.2c6.8,0,11-2.7,11-7.2V237c0-4.2-2.6-6.4-15.3-9.7
	C12.9,223.4,3,219.2,3,204.1v-0.2C3,190.1,14.1,181,29.6,181c11.1,0,20.5,3.5,28.2,9.7l-8.7,12.6c-6.7-4.7-13.4-7.5-19.8-7.5
	c-6.4,0-9.8,2.9-9.8,6.6v0.2c0,5,3.3,6.6,16.4,10c15.4,4,24.1,9.6,24.1,22.8v0.2c0,15.1-11.5,23.6-27.9,23.6
	C20.7,259.2,9.1,255.1,0,247"/>
<polygon fill="#FFFFFF" points="70.2,182.1 88.2,182.1 108.2,214.2 128.1,182.1 146.2,182.1 146.2,258.1 129.6,258.1 129.6,208.5 
	108.2,240.9 107.7,240.9 86.6,208.8 86.6,258.1 70.2,258.1 "/>
<path fill="#FFFFFF" d="M185,181.5h15.4l32.6,76.5h-17.5l-6.9-17h-32.1l-6.9,17h-17L185,181.5z M202.6,226.3l-10.1-24.6l-10.1,24.6
	H202.6z"/>
<path fill="#FFFFFF" d="M239.3,182.1H274c9.7,0,17.2,2.7,22.1,7.7c4.2,4.2,6.5,10.2,6.5,17.4v0.2c0,12.3-6.6,20-16.3,23.6l18.6,27.1
	h-19.5l-16.3-24.3h-0.2H256v24.3h-16.7V182.1z M272.9,219c8.1,0,12.8-4.3,12.8-10.7V208c0-7.2-5-10.9-13.1-10.9H256V219H272.9z"/>
<polygon fill="#FFFFFF" points="330.4,197.5 307.2,197.5 307.2,182.1 370.2,182.1 370.2,197.5 347.1,197.5 347.1,258.1 330.4,258.1 
	"/>
<polygon fill="#FFFFFF" points="378,182.1 432.1,182.1 432.1,187.3 383.7,187.3 383.7,217.1 427.2,217.1 427.2,222.4 383.7,222.4 
	383.7,252.9 432.6,252.9 432.6,258.1 378,258.1 "/>
<polygon fill="#FFFFFF" points="462.8,229.9 441,202.7 447.6,202.7 466.3,226.2 485,202.7 491.4,202.7 469.6,229.7 492.3,258.1 
	485.6,258.1 466.1,233.4 446.6,258.1 440.1,258.1 "/>
<path fill="#FFFFFF" d="M500.6,202.7h5.3v12.4c4.8-7.3,11.8-13.7,22.8-13.7c13.3,0,26.9,10.7,26.9,28.8v0.2c0,18-13.6,29-26.9,29
	c-11.1,0-18.2-6.3-22.8-13.2v29.3h-5.3V202.7z M549.9,230.6v-0.2c0-14.5-10.1-23.9-21.7-23.9c-11.5,0-22.6,9.7-22.6,23.8v0.2
	c0,14.2,11.1,23.8,22.6,23.8C540.2,254.3,549.9,245.5,549.9,230.6"/>
<path fill="#FFFFFF" d="M563.2,230.6v-0.2c0-15.5,12.1-29,28.5-29c16.4,0,28.3,13.2,28.3,28.8v0.2c0,15.5-12.1,29-28.6,29
	C575.2,259.4,563.2,246.1,563.2,230.6 M614.4,230.6v-0.2c0-13.4-10-24-22.8-24c-13.1,0-22.6,10.7-22.6,23.8v0.2
	c0,13.4,10,24,22.8,24C604.9,254.4,614.4,243.6,614.4,230.6"/>
<g>
</g>
<g>
</g>
<g>
</g>
<g>
</g>
<g>
</g>
<g>
</g>
</svg>
